<svg version="1.0" xmlns="http://www.w3.org/2000/svg"
 width="500.000000pt" height="500.000000pt" viewBox="0 0 500.000000 500.000000"
 preserveAspectRatio="xMidYMid meet">

<g transform="translate(0.000000,500.000000) scale(0.100000,-0.100000)"
fill="#3CAB80" stroke="none">
<path d="M2955 4905 c-128 -53 -311 -206 -421 -353 -32 -42 -61 -81 -65 -85
-4 -5 -24 18 -45 50 -61 93 -189 215 -264 251 -209 102 -423 42 -505 -140
-103 -229 40 -670 312 -958 69 -74 193 -178 266 -223 27 -17 27 -18 27 -128
l0 -111 -87 83 c-197 186 -357 249 -512 203 -76 -22 -144 -92 -167 -170 -51
-176 53 -476 218 -631 117 -110 345 -238 486 -274 42 -10 52 -17 52 -34 0 -17
-17 -28 -89 -59 -200 -84 -414 -263 -482 -401 l-34 -71 -105 4 c-71 3 -130 -1
-180 -12 -95 -20 -239 -91 -308 -152 l-53 -46 -132 -2 c-128 -1 -135 -2 -197
-33 -94 -47 -152 -107 -169 -173 -24 -92 -16 -185 25 -307 14 -41 13 -45 -13
-95 -24 -46 -28 -65 -28 -138 0 -72 4 -93 27 -140 50 -102 133 -180 293 -275
360 -213 816 -358 1338 -426 209 -27 705 -37 965 -20 203 14 510 49 745 86
200 31 581 102 625 116 66 22 64 0 60 596 -3 384 -7 546 -15 565 -24 55 -53
61 -383 83 -296 19 -330 23 -330 40 0 7 -22 58 -50 112 -98 196 -233 301 -400
311 l-79 4 -37 62 c-47 77 -141 175 -220 232 -103 74 -198 113 -356 148 -25 6
-28 11 -28 49 0 23 -3 59 -6 79 -5 27 -3 39 7 42 298 102 507 215 714 387 176
147 358 368 439 534 69 139 82 233 46 328 -55 146 -228 219 -410 173 -247 -63
-584 -326 -764 -599 l-51 -78 -6 48 c-3 26 -9 107 -13 179 l-8 132 101 52
c191 100 422 300 544 472 142 199 181 399 109 551 -78 163 -230 226 -387 162z
m188 -88 c45 -20 104 -88 118 -139 6 -24 9 -81 7 -130 -4 -77 -9 -96 -46 -171
-106 -215 -338 -440 -582 -566 -107 -56 -137 -80 -147 -119 -3 -14 -1 -137 6
-272 18 -363 30 -716 31 -877 l0 -143 -54 0 c-29 0 -68 -3 -85 -6 l-32 -7 4
319 c2 176 5 326 5 334 1 8 2 170 3 360 l1 344 50 99 c101 203 249 400 418
560 100 94 120 127 78 127 -16 0 -66 -44 -163 -142 -139 -142 -220 -246 -323
-415 l-54 -88 6 60 c29 277 190 557 434 754 148 121 239 153 325 118z m-1037
-137 c34 -15 81 -45 104 -66 46 -42 143 -167 174 -225 l19 -36 -36 -84 c-20
-46 -46 -122 -58 -169 -12 -47 -23 -91 -25 -99 -3 -8 -31 29 -63 81 -93 152
-227 314 -253 306 -29 -10 -17 -41 40 -102 71 -76 169 -220 223 -328 l39 -77
-7 -165 -6 -165 -61 46 c-200 152 -366 395 -442 648 -21 70 -27 112 -28 190
-1 91 2 105 27 158 59 120 203 155 353 87z m1555 -812 c168 -93 111 -307 -170
-642 -172 -206 -445 -398 -716 -504 -158 -63 -145 -63 -145 5 l0 59 113 130
c132 150 326 336 482 462 109 87 131 117 88 117 -51 0 -450 -357 -613 -549
-64 -76 -65 -76 -71 -49 -4 15 -7 66 -8 111 -1 82 0 86 49 180 141 271 388
516 657 649 136 67 251 78 334 31z m-1768 -494 c117 -59 229 -157 325 -285
l43 -57 -3 -126 -3 -126 -193 180 c-184 173 -232 206 -232 163 0 -10 94 -105
215 -217 l215 -200 0 -99 0 -99 -32 7 c-56 12 -238 103 -339 171 -54 35 -118
88 -143 117 -113 129 -186 352 -156 477 14 58 54 105 103 120 50 15 141 3 200
-26z m852 -1104 c200 -64 347 -183 435 -351 22 -42 47 -80 56 -83 8 -3 36 -1
60 5 140 36 277 -58 378 -259 15 -30 25 -56 23 -58 -9 -9 -256 46 -343 77
-194 68 -278 125 -456 307 -156 160 -218 196 -333 196 -60 0 -79 -4 -125 -30
-65 -36 -113 -107 -130 -191 -27 -127 45 -341 171 -508 23 -30 40 -57 38 -59
-2 -2 -25 -11 -50 -19 -187 -63 -422 -42 -706 62 -60 22 -188 74 -286 115 -97
42 -218 90 -268 108 l-92 32 34 28 c49 42 148 87 227 103 83 18 160 19 253 3
70 -12 72 -12 90 11 10 13 19 33 19 44 0 95 215 310 405 404 148 74 240 94
405 89 94 -3 143 -9 195 -26z m-85 -291 c29 -13 96 -70 190 -163 80 -78 161
-154 180 -168 63 -45 183 -106 275 -138 193 -67 338 -91 731 -120 153 -11 305
-23 337 -26 l57 -7 0 -161 c0 -88 3 -319 7 -513 l6 -351 -34 -6 c-19 -3 -120
-22 -225 -41 -417 -77 -779 -124 -1118 -146 -225 -15 -682 -6 -871 16 -459 54
-846 165 -1220 352 -274 137 -388 254 -389 399 0 53 4 66 34 107 18 26 37 44
40 40 4 -5 31 -39 60 -77 161 -206 442 -370 816 -475 142 -40 407 -98 422 -93
18 6 14 40 -5 46 -10 3 -81 19 -158 36 -471 103 -752 231 -958 435 -144 144
-255 343 -245 440 8 68 48 119 124 156 62 31 66 31 171 26 158 -7 200 -21 728
-237 179 -74 346 -123 473 -140 161 -22 348 -1 476 53 36 16 39 16 63 -3 35
-27 69 -25 88 4 20 30 11 52 -39 90 -84 63 -201 241 -246 371 -40 117 -21 241
46 294 36 28 122 28 184 0z"/>
<path d="M2049 1988 c-95 -47 -216 -201 -222 -284 -2 -23 2 -30 21 -32 13 -2
22 2 22 10 0 23 49 119 82 161 18 22 63 60 100 84 71 46 77 53 55 71 -10 9
-25 6 -58 -10z"/>
<path d="M2070 1822 c-64 -38 -85 -67 -57 -78 9 -3 45 12 82 33 50 28 65 42
63 57 -5 30 -18 28 -88 -12z"/>
<path d="M4227 1153 c-5 -9 40 -590 47 -610 6 -15 32 -17 41 -3 6 9 -29 516
-41 588 -3 23 -10 32 -24 32 -10 0 -21 -3 -23 -7z"/>
<path d="M4055 978 c-2 -7 -1 -29 3 -48 6 -26 13 -35 27 -35 22 0 31 31 21 71
-7 26 -43 34 -51 12z"/>
<path d="M4104 737 c-8 -22 24 -199 38 -208 7 -5 18 -3 25 4 20 20 -16 211
-40 215 -9 2 -20 -3 -23 -11z"/>
<path d="M2228 491 c-63 -7 -73 -13 -64 -37 6 -15 18 -16 95 -11 103 8 123 14
119 36 -4 18 -56 23 -150 12z"/>
</g>
</svg>
