<?xml version="1.0" standalone="no"?>
<!DOCTYPE svg PUBLIC "-//W3C//DTD SVG 20010904//EN"
 "http://www.w3.org/TR/2001/REC-SVG-20010904/DTD/svg10.dtd">
<svg version="1.0" xmlns="http://www.w3.org/2000/svg"
 width="500.000000pt" height="500.000000pt" viewBox="0 0 500.000000 500.000000"
 preserveAspectRatio="xMidYMid meet">

<g transform="translate(0.000000,500.000000) scale(0.100000,-0.100000)"
fill="#3CAB80" stroke="none">
<path d="M2828 4808 c-37 -28 -298 -444 -442 -703 -124 -222 -258 -506 -375
-790 -7 -17 -14 -9 -47 53 -235 439 -378 675 -509 840 -59 74 -93 94 -120 72
-24 -20 -18 -44 39 -158 128 -256 258 -578 410 -1014 l75 -217 -54 -190 c-76
-268 -195 -828 -195 -919 0 -46 -8 -18 -30 103 -97 549 -390 1314 -742 1944
-58 103 -78 122 -106 105 -28 -18 -25 -48 11 -147 106 -281 227 -782 306
-1267 103 -629 156 -1231 177 -2008 l7 -253 -89 3 -89 3 -2 85 c-27 1046 -263
1992 -644 2575 -111 171 -158 227 -187 223 -52 -6 -49 -22 41 -264 179 -480
252 -796 302 -1299 12 -129 35 -449 35 -495 0 -8 -23 36 -50 99 -115 264 -349
622 -411 629 -55 7 -54 -11 17 -244 144 -478 212 -876 202 -1199 l-3 -110
-168 -5 c-134 -4 -170 -8 -177 -20 -13 -20 -12 -23 3 -43 11 -16 171 -17 2487
-17 2259 0 2476 1 2487 16 12 17 7 44 -11 56 -6 4 -103 8 -215 8 l-204 0 6
268 c19 753 121 1427 308 2025 32 101 38 131 28 143 -16 19 -53 18 -71 -3 -57
-66 -306 -544 -402 -773 -27 -63 -57 -133 -67 -155 l-19 -40 6 80 c7 116 42
388 69 550 76 451 190 865 407 1473 73 205 88 255 78 267 -17 20 -54 19 -72
-2 -9 -10 -72 -113 -141 -230 -424 -713 -606 -1183 -717 -1847 -29 -177 -65
-474 -75 -631 -11 -173 -11 -173 -55 -57 -52 138 -102 228 -180 325 -71 89
-109 112 -137 84 -15 -15 -15 -26 5 -164 27 -190 39 -303 52 -483 14 -202 25
-725 16 -783 l-7 -47 -169 0 c-93 0 -171 4 -174 9 -8 12 11 531 24 706 64 828
207 1486 454 2087 30 75 53 144 50 153 -4 8 -18 18 -32 22 -29 7 -32 3 -128
-129 -238 -330 -486 -828 -650 -1306 -61 -180 -62 -179 -39 105 58 723 194
1344 425 1948 59 154 156 378 210 485 37 72 39 107 8 119 -13 5 -28 6 -34 4
-15 -6 -147 -190 -257 -358 -372 -570 -616 -1189 -760 -1925 l-13 -65 -22 60
c-90 249 -133 360 -192 499 -59 140 -66 163 -59 195 139 597 311 1106 564
1673 52 117 95 223 95 235 0 12 -9 27 -19 33 -24 13 -24 13 -43 -2z m-328
-745 c-117 -308 -219 -629 -299 -944 l-40 -154 -52 109 -52 109 18 51 c67 187
287 654 420 889 37 64 68 117 70 117 1 0 -28 -80 -65 -177z m780 -149 c-76
-176 -192 -546 -259 -824 -163 -676 -222 -1308 -218 -2345 l2 -480 -172 -3
-171 -2 -4 57 c-5 86 9 632 22 828 66 1000 249 1746 599 2440 85 167 211 388
218 381 2 -2 -6 -25 -17 -52z m-1487 -414 c248 -450 495 -1011 632 -1430 l47
-145 -21 -160 c-23 -178 -46 -421 -57 -595 l-8 -115 -13 80 c-56 336 -119 639
-198 955 -25 98 -45 193 -45 210 0 17 -6 41 -14 53 -13 21 -121 373 -153 502
-9 33 -21 71 -28 85 -7 14 -27 70 -45 125 -48 148 -155 442 -212 585 -28 69
-52 132 -55 140 -8 24 73 -113 170 -290z m2841 58 c-104 -304 -223 -749 -279
-1044 -97 -510 -133 -958 -142 -1752 l-6 -503 -131 3 -131 3 3 275 c11 1116
125 1825 398 2480 64 154 295 610 309 610 2 0 -7 -33 -21 -72z m-3544 -433
c335 -754 491 -1436 445 -1950 -18 -206 -33 -457 -41 -712 l-7 -203 -82 0 -83
0 -6 72 c-3 40 -8 197 -11 348 -17 936 -139 1880 -351 2725 -7 27 65 -120 136
-280z m2389 -480 c-189 -609 -298 -1339 -316 -2108 l-6 -278 -131 3 -131 3 0
500 0 500 38 140 c89 326 229 705 372 1003 65 134 214 406 220 400 2 -2 -19
-75 -46 -163z m-2989 -47 c231 -483 381 -1069 445 -1739 20 -204 36 -581 26
-592 -4 -4 -64 -6 -132 -5 l-124 3 -2 205 c-7 634 -43 1172 -104 1535 -36 217
-136 606 -184 718 -4 9 -4 17 0 17 3 0 37 -64 75 -142z m1492 -123 l51 -180
-22 -185 c-51 -437 -69 -765 -78 -1383 l-6 -467 -175 0 -175 0 7 243 c21 767
124 1524 287 2111 l32 120 14 -40 c8 -21 37 -120 65 -219z m2699 -281 c-120
-478 -211 -1260 -211 -1821 l0 -114 -87 3 -88 3 3 400 c2 220 7 477 11 570 l8
170 61 160 c101 265 306 724 319 712 2 -3 -5 -40 -16 -83z m-2472 -654 c86
-421 136 -797 149 -1102 4 -94 5 -172 3 -174 -2 -2 -81 -4 -174 -4 l-170 0 6
498 c7 552 28 978 64 1247 l7 50 33 -135 c18 -74 55 -245 82 -380z m1490 -110
c50 -97 92 -218 127 -361 26 -111 27 -124 31 -461 l5 -348 -89 0 -89 0 -1 308
c-1 368 -25 758 -59 962 l-6 35 22 -30 c11 -16 38 -64 59 -105z m-3376 8 c111
-188 203 -395 255 -578 30 -102 31 -112 34 -350 l3 -245 -85 0 -84 0 2 95 c6
196 -24 470 -78 740 -26 128 -86 363 -105 413 -16 40 7 11 58 -75z"/>
</g>
</svg>
