<?xml version="1.0" standalone="no"?>
<!DOCTYPE svg PUBLIC "-//W3C//DTD SVG 20010904//EN"
 "http://www.w3.org/TR/2001/REC-SVG-20010904/DTD/svg10.dtd">
<svg version="1.0" xmlns="http://www.w3.org/2000/svg"
 width="500.000000pt" height="500.000000pt" viewBox="0 0 500.000000 500.000000"
 preserveAspectRatio="xMidYMid meet">

<g transform="translate(0.000000,500.000000) scale(0.100000,-0.100000)"
fill="#FFFFFF" stroke="none">
<path d="M4485 4534 c-888 -88 -1502 -403 -1878 -963 -209 -311 -336 -728
-354 -1162 l-6 -147 -60 92 c-241 367 -580 635 -1001 791 -247 91 -612 154
-898 155 -70 0 -78 -2 -96 -25 -36 -45 -68 -304 -57 -460 27 -386 158 -677
410 -913 272 -254 694 -405 1233 -442 237 -16 298 -14 322 10 26 26 25 32 -6
132 -108 345 -438 699 -866 927 -127 68 -315 151 -343 151 -47 0 -74 -71 -37
-102 9 -8 42 -25 72 -37 103 -43 310 -153 403 -213 218 -143 394 -311 510
-485 55 -82 137 -238 137 -260 0 -11 -292 5 -405 22 -658 97 -1063 372 -1229
833 -49 137 -69 262 -70 437 -1 88 3 191 7 229 l9 69 146 -6 c552 -23 1033
-216 1380 -551 176 -170 290 -331 412 -581 193 -396 288 -832 295 -1362 2
-212 5 -223 61 -223 25 0 38 7 50 25 15 23 16 53 11 273 -3 138 -12 302 -22
372 -34 263 -106 553 -189 769 -40 104 -47 169 -47 414 2 1013 527 1717 1484
1993 241 69 557 118 850 130 l158 7 -5 -34 c-3 -19 -11 -70 -17 -114 -48 -351
-179 -761 -336 -1054 -357 -666 -918 -1027 -1652 -1063 l-54 -3 6 93 c17 247
124 561 272 792 126 197 326 392 538 523 42 27 77 51 77 55 0 4 3 17 6 29 7
27 -27 63 -59 63 -32 0 -181 -95 -294 -186 -373 -304 -608 -750 -664 -1264
-14 -127 -8 -198 17 -217 40 -29 344 -6 563 43 698 156 1223 654 1514 1434 93
250 172 575 202 839 23 191 33 181 -188 180 -94 -1 -235 -8 -312 -15z"/>
</g>
</svg>
