<?xml version="1.0" standalone="no"?>
<!DOCTYPE svg PUBLIC "-//W3C//DTD SVG 20010904//EN"
 "http://www.w3.org/TR/2001/REC-SVG-20010904/DTD/svg10.dtd">
<svg version="1.0" xmlns="http://www.w3.org/2000/svg"
 width="500.000000pt" height="500.000000pt" viewBox="0 0 500.000000 500.000000"
 preserveAspectRatio="xMidYMid meet">

<g transform="translate(0.000000,500.000000) scale(0.100000,-0.100000)"
fill="#3CAB80" stroke="none">
<path d="M4759 4367 c-63 -41 -69 -68 -69 -287 l0 -195 -584 -749 c-320 -412
-587 -748 -592 -748 -5 0 -12 19 -16 42 -9 54 -50 123 -91 154 -82 62 -161 70
-343 32 l-111 -23 -7 60 c-8 78 -46 161 -99 216 -40 42 -145 101 -178 101 -9
0 -21 6 -26 13 -6 6 -31 91 -57 187 -26 96 -55 183 -63 193 -15 16 -49 17
-433 17 -343 0 -420 -2 -436 -14 -13 -10 -34 -68 -70 -198 l-51 -183 -59 -7
c-112 -15 -200 -66 -258 -152 -58 -85 -66 -132 -66 -377 l0 -217 -67 -15 c-38
-9 -117 -25 -178 -37 -130 -26 -200 -58 -272 -123 -60 -56 -119 -163 -129
-236 l-6 -47 -61 -11 c-125 -24 -273 -127 -346 -241 -168 -263 -69 -632 208
-776 219 -113 472 -75 647 100 57 56 134 184 134 220 0 12 124 14 758 14 l757
-1 40 -56 c161 -224 436 -354 719 -340 134 7 229 32 346 92 256 133 426 384
455 672 l7 73 85 40 c260 122 455 356 528 636 26 101 35 220 35 484 0 279 -10
360 -54 434 -23 40 -103 120 -140 141 -17 10 2 37 173 258 105 135 196 258
201 272 6 15 10 130 10 258 0 259 -4 280 -70 325 -46 31 -124 31 -171 -1z
m109 -99 c9 -9 12 -73 12 -229 l0 -216 -597 -770 -597 -770 -30 12 c-17 8 -31
18 -31 23 0 5 259 342 575 747 316 406 583 752 593 769 15 26 17 58 17 226 0
194 4 220 35 220 6 0 16 -5 23 -12z m-2428 -1010 c0 -2 18 -65 39 -140 l39
-138 -59 0 -58 0 -15 53 c-8 28 -20 73 -27 100 -9 36 -15 46 -28 43 -9 -3 -35
-10 -57 -17 l-42 -12 23 -83 23 -84 -59 0 -59 0 0 85 0 85 -60 0 -60 0 0 -85
0 -85 -74 0 -74 0 23 85 24 85 -42 10 c-23 6 -49 13 -58 16 -12 3 -18 -4 -23
-28 -3 -17 -15 -62 -27 -100 l-20 -68 -54 0 c-38 0 -55 4 -55 13 0 7 11 51 24
97 14 47 29 104 36 128 l11 42 354 0 c195 0 355 -1 355 -2z m2167 -142 c15
-13 40 -46 53 -72 l25 -49 -1 -345 c0 -324 -1 -350 -22 -425 -65 -233 -226
-437 -431 -544 l-78 -40 -13 57 c-41 189 -153 368 -308 493 l-43 34 367 472
366 472 28 -14 c15 -8 41 -25 57 -39z m-1917 -277 c87 -39 129 -103 138 -205
4 -54 2 -63 -14 -68 -29 -8 -1515 -306 -1530 -306 -11 0 -14 40 -14 208 0 196
1 210 24 257 24 53 70 99 121 121 24 10 157 13 630 13 583 1 601 0 645 -20z
m628 -336 c35 -26 59 -62 67 -99 l6 -31 -103 -6 c-410 -25 -722 -289 -802
-679 -9 -42 -16 -98 -16 -123 l0 -45 -723 0 -724 0 -38 48 c-78 97 -196 171
-310 195 -49 10 -55 14 -55 37 0 40 45 125 88 167 22 21 62 49 88 61 66 30
2392 502 2453 497 24 -1 55 -11 69 -22z m215 -286 c220 -71 397 -248 473 -472
25 -72 27 -94 27 -220 0 -126 -2 -148 -27 -220 -39 -115 -98 -209 -185 -295
-139 -136 -283 -199 -476 -207 -215 -9 -397 60 -545 207 -139 140 -210 313
-210 516 0 283 159 535 415 655 114 54 196 69 335 65 88 -3 133 -10 193 -29z
m-2868 -572 c119 -31 223 -116 277 -227 105 -214 16 -469 -200 -575 -74 -37
-79 -38 -187 -38 -108 0 -113 1 -187 38 -222 109 -307 369 -191 589 92 176
292 263 488 213z m1815 -265 c0 -10 11 -54 25 -97 14 -43 25 -81 25 -85 0 -5
-319 -8 -709 -8 l-708 0 -11 83 c-7 45 -14 92 -18 105 l-6 22 701 0 c690 0
701 0 701 -20z"/>
<path d="M3165 1906 c-79 -34 -132 -73 -178 -132 -75 -98 -103 -228 -73 -344
42 -164 163 -277 333 -310 213 -42 443 127 471 346 23 179 -66 348 -227 426
-58 29 -76 33 -165 36 -89 2 -108 0 -161 -22z m279 -120 c103 -50 159 -143
159 -261 0 -119 -56 -210 -161 -262 -76 -37 -183 -39 -252 -4 -136 69 -201
222 -155 362 24 72 109 158 180 182 70 24 159 17 229 -17z"/>
<path d="M497 1499 c-96 -23 -173 -92 -203 -182 -21 -63 -15 -157 14 -214 43
-84 154 -153 247 -153 72 0 138 30 195 88 84 86 106 195 60 299 -53 120 -191
192 -313 162z m137 -132 c52 -29 80 -77 80 -137 0 -86 -57 -149 -142 -158 -64
-6 -115 18 -149 69 -22 33 -25 47 -21 97 5 69 26 103 83 132 52 26 100 25 149
-3z"/>
</g>
</svg>
