<?xml version="1.0" standalone="no"?>
<!DOCTYPE svg PUBLIC "-//W3C//DTD SVG 20010904//EN"
 "http://www.w3.org/TR/2001/REC-SVG-20010904/DTD/svg10.dtd">
<svg version="1.0" xmlns="http://www.w3.org/2000/svg"
 width="500.000000pt" height="500.000000pt" viewBox="0 0 500.000000 500.000000"
 preserveAspectRatio="xMidYMid meet">

<g transform="translate(0.000000,500.000000) scale(0.100000,-0.100000)"
fill="#3CAB80" stroke="none">
<path d="M1788 4984 c-601 -108 -1076 -805 -1183 -1734 -24 -202 -16 -605 15
-805 84 -548 283 -992 582 -1298 178 -181 411 -306 622 -332 l56 -7 0 -339 0
-339 -195 0 c-182 0 -196 -1 -215 -20 -26 -26 -26 -64 0 -90 19 -19 33 -20
473 -20 347 0 457 3 470 13 28 20 32 69 7 95 -20 21 -26 22 -215 22 l-195 0 0
338 0 338 78 11 c214 32 455 170 634 364 l82 88 37 -94 c130 -332 342 -559
583 -625 l61 -17 0 -199 0 -199 -193 -5 c-179 -5 -195 -7 -208 -25 -18 -24
-11 -75 13 -93 13 -9 111 -12 408 -12 436 0 435 0 435 64 0 59 -18 66 -178 66
l-142 0 0 204 0 204 53 12 c353 82 635 524 719 1130 17 122 16 504 -1 630 -58
427 -195 749 -410 960 -117 116 -221 170 -363 190 -107 15 -204 -3 -344 -66
-7 -3 -15 22 -23 68 -37 225 -119 483 -220 693 -290 601 -763 916 -1243 829z
m263 -124 c215 -31 439 -164 606 -359 275 -322 450 -786 504 -1337 15 -149 6
-531 -15 -671 -80 -533 -262 -952 -538 -1238 -259 -270 -553 -369 -859 -291
-224 57 -442 220 -612 457 -124 174 -267 491 -327 728 -108 429 -121 933 -34
1361 176 863 713 1431 1275 1350z m1609 -1541 c68 -15 157 -70 231 -141 319
-305 468 -1014 344 -1634 -156 -779 -657 -1112 -1046 -697 -109 118 -197 274
-260 464 l-31 94 53 90 c178 307 291 673 335 1087 12 115 15 213 11 393 -2
132 -6 247 -8 254 -6 22 135 91 202 100 58 8 98 6 169 -10z"/>
<path d="M2150 3775 l-205 -205 -110 110 c-93 93 -114 110 -141 110 -37 0 -64
-27 -64 -64 0 -22 26 -54 125 -155 l125 -128 0 -664 0 -664 -313 313 c-173
172 -321 312 -330 312 -25 0 -67 -45 -67 -72 0 -16 98 -120 355 -378 l355
-355 0 -435 c0 -378 2 -438 16 -458 19 -28 67 -29 94 -2 20 20 20 33 20 767
l0 748 300 300 c316 317 320 322 284 373 -10 15 -25 22 -47 22 -27 0 -61 -30
-284 -252 l-253 -252 0 353 0 353 216 219 c176 177 217 223 217 245 0 32 -34
64 -66 64 -14 0 -91 -70 -227 -205z"/>
<path d="M3638 2603 l-148 -147 0 -68 c0 -68 -7 -81 -30 -53 -19 23 -76 19
-94 -7 -27 -38 -19 -57 54 -132 l70 -73 0 -371 c0 -205 -3 -372 -7 -372 -4 0
-55 47 -113 105 -113 110 -134 121 -170 85 -43 -43 -31 -63 135 -230 l155
-156 0 -142 c0 -134 1 -142 22 -156 32 -22 55 -20 83 9 l25 24 0 388 0 387
155 156 c107 108 155 163 155 179 0 25 -42 71 -65 71 -9 0 -66 -48 -128 -107
l-112 -107 -3 259 -2 259 125 126 c84 85 125 134 125 149 0 26 -42 71 -66 71
-10 0 -84 -66 -166 -147z"/>
</g>
</svg>
